{"title":"The Frighteners 1996 DVDrip English Klam","uid":6459157,"size":1572245915,"categoryP":"video","categoryS":"movies","magnet":"?xt=urn:btih:4026ec19d917f99a7034026819569e800a5a8ec1&amp;dn=The+Frighteners+1996+DVDrip+English+Klam&amp;tr=udp%3A%2F%2Ftracker.openbittorrent.com%3A80&amp;tr=udp%3A%2F%2Fopen.demonii.com%3A1337&amp;tr=udp%3A%2F%2Ftracker.coppersurfer.tk%3A6969&amp;tr=udp%3A%2F%2Fexodus.desync.com%3A6969","seeders":0,"leechers":0,"uploader":"Klambake","files":5,"time":1307697375,"description":"With: Michael J. Fox, Trini Alvarado and Peter Dobson\n\nFrank Bannister (Fox) heeft na een auto-ongeluk een bijzondere gave gekregen. Hij kan namelijk geesten zien. Hij sluit een dealtje met een paar geesten, waardoor zij bij iemand thuis gaan spoken en Bannister ze tegen betaling wel even komt wegjagen. Als er opeens op bovennatuurlijke wijze allemaal mensen worden vermoord, is Bannister ÃƒÂ©ÃƒÂ©n van de hoofdverdachten. Niemand gelooft hem als hij zegt dat de moorden door de Dood zijn gepleegd, dus zal hij zelf het bewijs moeten leveren.\n\n------------------ Dutch Friends ------------------\n\nYou can find my Friends at: http://www.Film-Test.nl \n                    \n------ They got my dutchs subs ---- and more ------\n\nGeneral:\n\nComplete name                    : The Frighteners\\The Frighteners.avi\nFormat                           : AVI\nFormat/Info                      : Audio Video Interleave\nFile size                        : 1.46 GiB\nDuration                         : 1h 45mn\nOverall bit rate                 : 1 991 Kbps\nWriting application              : VirtualDubMod 1.5.4.1 (build 2178/release)\nWriting library                  : VirtualDubMod build 2178/release\n\nVideo:\n\nFormat                           : MPEG-4 Visual\nFormat profile                   : Simple@L3\nFormat settings, BVOP            : No\nFormat settings, QPel            : No\nFormat settings, GMC             : No warppoints\nFormat settings, Matrix          : Default (H.263)\nCodec ID                         : XVID\nCodec ID/Hint                    : XviD\nDuration                         : 1h 45mn\nBit rate                         : 1 600 Kbps\nWidth                            : 720 pixels\nHeight                           : 304 pixels\nDisplay aspect ratio             : 2.35:1\nFrame rate                       : 25.000 fps\nColor space                      : YUV\nChroma subsampling               : 4:2:0\nBit depth                        : 8 bits\nScan type                        : Progressive\nBits/(Pixel*Frame)               : 0.292\nStream size                      : 1.18 GiB (80%)\nWriting library                  : XviD 1.2.1 (UTC 2008-12-04)\n\nAudio:\n\nFormat                           : AC-3\nFormat/Info                      : Audio Coding 3\nMode extension                   : CM (complete main)\nCodec ID                         : 2000\nDuration                         : 1h 45mn\nBit rate mode                    : Constant\nBit rate                         : 384 Kbps\nChannel(s)                       : 6 channels\nChannel positions                : Front: L C R, Side: L R, LFE\nSampling rate                    : 48.0 KHz\nBit depth                        : 16 bits\nStream size                      : 289 MiB (19%)\nAlignment                        : Split accross interleaves\nInterleave, duration             : 80 ms (2.00 video frames)\nInterleave, preload duration     : 500 ms\nLanguage                         : English\n\n\n\n\n","torrent":{"xt":"urn:btih:4026ec19d917f99a7034026819569e800a5a8ec1","amp;dn":"The+Frighteners+1996+DVDrip+English+Klam","amp;tr":["udp%3A%2F%2Ftracker.openbittorrent.com%3A80","udp%3A%2F%2Fopen.demonii.com%3A1337","udp%3A%2F%2Ftracker.coppersurfer.tk%3A6969","udp%3A%2F%2Fexodus.desync.com%3A6969"],"infoHash":"4026ec19d917f99a7034026819569e800a5a8ec1","infoHashBuffer":{"type":"Buffer","data":[64,38,236,25,217,23,249,154,112,52,2,104,25,86,158,128,10,90,142,193]},"announce":[],"urlList":[]}}